<svg width="25" height="26" viewBox="0 0 25 26" fill="none" xmlns="http://www.w3.org/2000/svg">
<path d="M0 6.45833V0H6.25V2.58333H2.5V6.45833H0ZM0 25.8333V19.375H2.5V23.25H6.25V25.8333H0ZM18.75 25.8333V23.25H22.5V19.375H25V25.8333H18.75ZM22.5 6.45833V2.58333H18.75V0H25V6.45833H22.5ZM19.375 20.0208H21.25V21.9583H19.375V20.0208ZM19.375 16.1458H21.25V18.0833H19.375V16.1458ZM17.5 18.0833H19.375V20.0208H17.5V18.0833ZM15.625 20.0208H17.5V21.9583H15.625V20.0208ZM13.75 18.0833H15.625V20.0208H13.75V18.0833ZM17.5 14.2083H19.375V16.1458H17.5V14.2083ZM15.625 16.1458H17.5V18.0833H15.625V16.1458ZM13.75 14.2083H15.625V16.1458H13.75V14.2083ZM21.25 3.875V11.625H13.75V3.875H21.25ZM11.25 14.2083V21.9583H3.75V14.2083H11.25ZM11.25 3.875V11.625H3.75V3.875H11.25ZM9.375 20.0208V16.1458H5.625V20.0208H9.375ZM9.375 9.6875V5.8125H5.625V9.6875H9.375ZM19.375 9.6875V5.8125H15.625V9.6875H19.375Z" fill="#1F1F1F"/>
</svg>
