<svg width="21" height="20" viewBox="0 0 21 20" fill="none" xmlns="http://www.w3.org/2000/svg">
<path d="M13 2H7V9H13V2ZM18 2H15V9H18V2ZM12.375 11H6V17H11.55C11.9 17 12.2375 16.9417 12.5625 16.825C12.8875 16.7083 13.1833 16.5333 13.45 16.3L17.6 12.875C17.4667 12.7417 17.3167 12.6417 17.15 12.575C16.9833 12.5083 16.8083 12.4583 16.625 12.425C16.3417 12.375 16.0667 12.3833 15.8 12.45C15.5333 12.5167 15.2833 12.6417 15.05 12.825L12.35 15H8V13H11.65L12.75 12.1C12.8333 12.05 12.8958 11.9833 12.9375 11.9C12.9792 11.8167 13 11.725 13 11.625C13 11.4583 12.9375 11.3125 12.8125 11.1875C12.6875 11.0625 12.5417 11 12.375 11ZM4 11H2V18H4V11ZM5 11V2C5 1.45 5.19583 0.979167 5.5875 0.5875C5.97917 0.195833 6.45 0 7 0H18C18.55 0 19.0208 0.195833 19.4125 0.5875C19.8042 0.979167 20 1.45 20 2V9C20 9.55 19.8042 10.0208 19.4125 10.4125C19.0208 10.8042 18.55 11 18 11H5ZM4 20H2C1.45 20 0.979167 19.8042 0.5875 19.4125C0.195833 19.0208 0 18.55 0 18V11C0 10.45 0.195833 9.97917 0.5875 9.5875C0.979167 9.19583 1.45 9 2 9H12.375C13.7917 9 15.1583 9.24167 16.475 9.725C17.7917 10.2083 18.85 11.025 19.65 12.175L20.325 13.2L14.75 17.85C14.3 18.2333 13.8 18.5208 13.25 18.7125C12.7 18.9042 12.1333 19 11.55 19H5.725C5.54167 19.3 5.3 19.5417 5 19.725C4.7 19.9083 4.36667 20 4 20Z" fill="#1F1F1F"/>
</svg>
