<svg width="24" height="24" viewBox="0 0 24 24" fill="none" xmlns="http://www.w3.org/2000/svg">
<path d="M6 22C5.45 22 4.97917 21.8042 4.5875 21.4125C4.19583 21.0208 4 20.55 4 20V8C4 7.06667 4.28333 6.25 4.85 5.55C5.41667 4.85 6.13333 4.38333 7 4.15V2H10V4H14V2H17V4.15C17.8667 4.38333 18.5833 4.85 19.15 5.55C19.7167 6.25 20 7.06667 20 8V20C20 20.55 19.8042 21.0208 19.4125 21.4125C19.0208 21.8042 18.55 22 18 22H6ZM6 20H18V8C18 7.45 17.8042 6.97917 17.4125 6.5875C17.0208 6.19583 16.55 6 16 6H8C7.45 6 6.97917 6.19583 6.5875 6.5875C6.19583 6.97917 6 7.45 6 8V20ZM14.5 16H16.5V12H7.5V14H14.5V16Z" fill="#1F1F1F"/>
</svg>
